<?xml version="1.0" encoding="utf-8"?>
<!-- Generator: Adobe Illustrator 16.0.0, SVG Export Plug-In . SVG Version: 6.00 Build 0)  -->
<!DOCTYPE svg PUBLIC "-//W3C//DTD SVG 1.1//EN" "http://www.w3.org/Graphics/SVG/1.1/DTD/svg11.dtd">
<svg version="1.1" id="cover6-svg" xmlns="http://www.w3.org/2000/svg" xmlns:xlink="http://www.w3.org/1999/xlink" x="0px" y="0px"
           width="395.7px" height="451.8px" viewBox="0 0 395.7 451.8" style="enable-background:new 0 0 395.7 451.8;" xml:space="preserve"
           >
             <g style="fill:none;stroke:#2a333c;stroke-width:2;stroke-miterlimit:10;">
                 <path d="M19.9,341.2c-0.8,0.2-1.9,0.3-2.4,1.1c-0.6,1.1,0.4,2.6,1.7,2.2c2.8-1,1.4-3.4,0.2-5.1c-2.6-3.7-2.5-6.2-7.5-7.1
                   C3.8,331,0,339.9,0,346.5c0,8.1,6,11.5,13.3,11.3c5.9-0.1,16.6-3,15.8-10.7c-0.1-1-1.2-2-2.3-1.3c-2.3,1.7-4.4,3.1-6.2,5.4
                   c-1,1.2,0.3,3.4,1.8,2.4c4.7-3.3,10.1,0.4,15.5,0.1c4.8-0.3,9.8-2.2,14.6-2.9c2.8-0.4,7.7-0.4,9.8-2.6c2.7-2.7,4.3-6.1,3.6-9.9
                   c-1.7-9.6-10.7-15.6-13.2-24.8c-1.8-6.7-0.1-13.8-1.3-20.6c-1.2-6.8-4.4-12.8-7.8-18.8c-3.7-6.6-6.4-12.8-7.3-20.3
                   c-0.9-7.7-0.8-15.5-0.5-23.3c0.6-14.9,2.1-29.7,2.3-44.7c0.2-14.9,1.1-30,6.5-44.1c4.5-11.8,13.9-21.3,23.4-29.3
                   c9.6-8.1,20.3-14.7,30.6-22c12.4-8.7,24.9-17.4,38-25.2c17.8-10.7,37.2-19,56.7-25.9c19.7-7,40.7-12.6,61.8-12.1
                   c9.4,0.2,18.8,2.1,26.9,6.9c4,2.4,7.8,5.7,10.1,9.7c3.3,5.7,2.9,13.2,3.8,19.5c0.8,6,1.5,11.7,3.7,17.5c2.6,6.8,6.7,12.8,9.4,19.5
                   c3,7.3,3.8,15,0.4,22.2c-2.8,5.8-7.3,10.7-10,16.6c-5.3,11.8-6.1,26.1-4.6,38.7c1.5,13,7.6,24.7,10,37.5
                   c2.5,13.5,0.2,26.8-1.1,40.3c-1.5,15.1,1.4,30.3,0.5,45.5c-0.9,15.2-7.6,30.2-12.1,44.6c-4.5,14.2-8.9,29-16.1,42.1
                   c-12.1,22.1-32.3,37.8-55,47.9c-8.5,3.8-17.4,6.8-26.4,9.3c-8.1,2.3-18,5.2-26.4,3.2c-1.8-0.4-3-1.4-3.6-3.1
                   c-0.9-2.4,2.1-3.5,3.8-4.1c3.9-1.4,8.3-1.7,12.4-2.3c9.8-1.4,19.6-5.5,28.2-10.5c17.3-10.1,29.2-26.7,36-45.3
                   c3.7-10.2,5.8-20.9,7-31.6c1.5-13.7,3.4-27.5,4.7-41.2c1.2-12.9,0.6-25.4-3.8-37.6c-4.4-12.3-11.3-24.2-12.4-37.4
                   c-0.2-2.4-0.1-14.5,4.3-12.4c3.2,1.5,5.9,3.7,9.4,4.7c2.6,0.7,5.7,0.4,8.4,0.5c1.6,0.1,3.4,0.2,4.9,0.9c1.1,0.5-0.8,1.7-1.1,2
                   c-1.7,1.6-3.4,2.2-5.7,2.3c-5.4,0.2-11.2-2.9-15.9-5c-4.4-1.9-8.8-2.9-13.4-4.1c-5-1.3-9.2-3.3-10.8-8.5c-1-3.2-0.7-6.9,0.2-10.1
                   c1.8-6.3,7.3-4.7,10.9-1.1c4.9,4.9,6.2,23.4,16.8,14.9c5.9-4.8,10.2-11.1,10.6-18.9c0.4-7.8-4.3-15.2-8.5-21.4
                   c-4.7-6.7-10.3-12.8-14.3-20c-4.7-8.5-3.5-18.3-3.9-27.6c-0.2-3.5-0.6-8.1-4.4-9.5c-1.5-0.5-3.3-0.1-4.8,0.1
                   c-3.3,0.5-6.5,1.1-9.8,1.1c0.5,0.5,1,1,1.5,1.5c0.3-4,7.7-4.9,10.1-7.6c3.3-3.8-1.6-9.5-4.6-11.6c-4.1-2.9-8.9-2.5-11.7,1.8
                   c-3.4,5.2,1,11,5.4,13.6c0.6,0.4,1.7,0.2,2.1-0.5c5.6-12.6-14.3-8.3-19.7-4.3c-1.5,1.1-0.1,3.7,1.5,2.6
                   c5.6-3.7,16.9-16.3,24.2-12.3c3,1.7,1.2,10.6,0.8,13.1c-0.6,3.7-1.4,9.6-4.7,11.9c-7,4.8-19.6-0.5-26.4-3.2
                   c-7.6-3.1-18.3-7.7-21.5-15.9c-4-10.2,1-23.4,2.9-33.5c1.3-7,1.5-13.4,0-20.3c-1.7-7.7-4.3-15.2-7.7-22.2
                   c-2.6-5.4-6.5-12.4-12.5-14.7c-5.4-2-11.4,0.8-13.1,6.3c-2.3,7.4,3.5,17,7.5,22.8c5.3,7.8,12.8,12.7,22.2,14
                   c8.4,1.2,17.3,0.6,25.8,0.9c15.2,0.4,35.8,1.5,47.8-9.8c4.8-4.5,7.1-12.3,4.9-18.6c-2.2-6.4-9.2-9.4-15.1-11.1
                   c-7.8-2.2-16.3-2.6-24.3-2.7c-10.6-0.2-20.3,0.6-29.9-4.8c-11.4-6.4-21.2-14.6-34.3-17.2c-9.9-2-20.1-1-29.8,1.4
                   C93.5,7.7,74.1,21.4,60,38.2C45.4,55.6,38.7,76.7,40.6,99.4c0.8,8.7,3.4,17.2,8.1,24.5c5.6,8.6,14.7,14.3,22.7,20.4
                   c8.8,6.8,16.2,15.3,24.3,22.9c3.5,3.3,7.2,6.4,11.3,9.1c5,3.2,10.5,5.5,15.4,9c1.6,1.1,0,0,3.1-1.5"/>

                 <path d="M221.5,353.3c4.4-14.2,10.4-27.9,14.7-42.2c2.1-7.1,3.6-14.3,5.3-21.5c1.8-8,3.2-15.9,7.3-23.1c3.9-6.7,13.9-17.7,8.6-26
                   c-2.3-3.6-7.1-6-10.3-8.8c-4.6-4.2-9.6-8-14.8-11.5c-10.3-7-21.8-12.2-33.2-17.1c-9.8-4.3-20-8.2-25.7-18
                   c-5.7-9.8-3.1-21.5-1.3-31.9c2.3-13.5,5.4-26.9,11.2-39.3c12.1-25.7,36.7-40.3,59.6-55.3c9.9-6.5,20.4-13.5,28.5-22.3
                   c5.9-6.6,9.7-14.8,16.1-20.9c8.8-8.5,18.9-3.3,23.9,6.2c4.9,9.2,6.6,19.8,9.5,29.6c3.3,11.2,10.6,20.1,14.9,30.8
                   c2.6,6.4,2.5,13,2.3,19.7c-0.3,8.5-1.2,16.9-2.5,25.3c-3.2,19.9-12.3,37.6-18.4,56.5c-4.7,14.6-7.5,32-2.2,46.8
                   c5,14,18.1,23.4,30.2,31c15.2,9.6,32,14,49.4,7.8c1.3-0.5,1.4-2,0.4-2.7c-8.8-6.4-21.3-7.5-31.3-10.9
                   c-13.1-4.5-23.2-14.3-32.5-24.1c-9.1-9.6-17.7-17.6-30.5-21.9c-6.7-2.2-14-3.8-21-4.4c-8.1-0.6-15.2,5.1-23.1,3.9
                   c0.3,0.7,0.6,1.5,0.9,2.2c10.9-19.7,39.7-2,56.4-8.1c0.8-0.3,1.5-1.3,0.9-2.2c-5.6-8.2-14.5-9-23.7-8.2c-5,0.4-9.9,1.2-14.9,1.2
                   c-2.9,0-10.9,0.2-12.8-2.4c-0.9-1.1-1-3.1-1.3-4.4c-0.7-3.3-1.3-6.6-1.7-9.9c-0.8-6.5-1.1-13-3.5-19.2
                   c-3.9-9.9-12.4-17.3-18.4-25.9c-3.2-4.6-5.7-10-4.6-15.7c0.9-4.7,3.7-10,2.4-14.9c-2.5-9.8-12.2-9.3-19.5-5.2
                   c-4.3,2.4-7.6,6.1-10.8,9.7c-2.1,2.4-4.4,4.5-7.2,6.2c-3.8,2.3-8.5,2.3-12.6,4c-9.7,4-13.2,13.5-12.4,23.2
                   c1.1,14.2,7.7,27.4,9,41.6c1,11.2-0.7,26.4-13.3,30c-9.1,2.6-19.4-1.9-27-6.5c-8-4.8-15.9-12.1-19.3-21c-0.5,0.6-1,1.3-1.4,1.9
                   c0.2,0,0.3,0,0.5,0c1.7,0,2.1-2.5,0.4-2.9c-0.2-0.2-0.3-0.2-0.3,0c-1.2-1.5-3.8,0-2.6,1.5c0.6,0,0,0,0,0"/>
             </g>
           </svg>
